<svg id="icons" enable-background="new 0 0 64 64" height="512" viewBox="0 0 64 64" width="512" xmlns="http://www.w3.org/2000/svg"><path d="m11.004 60.979c-.005.263.089.527.289.728l2 2c.195.195.451.293.707.293s.512-.098.707-.293l1.293-1.293 1.293 1.293c.195.195.451.293.707.293s.512-.098.707-.293l1.293-1.293 1.293 1.293c.195.195.451.293.707.293s.512-.098.707-.293l1.293-1.293 1.293 1.293c.195.195.451.293.707.293s.512-.098.707-.293l1.293-1.293 1.293 1.293c.195.195.451.293.707.293s.512-.098.707-.293l1.293-1.293 1.293 1.293c.195.195.451.293.707.293s.512-.098.707-.293l1.293-1.293 1.293 1.293c.195.195.451.293.707.293s.512-.098.707-.293l1.293-1.293 1.293 1.293c.195.195.451.293.707.293s.512-.098.707-.293l1.293-1.293 1.293 1.293c.195.195.451.293.707.293s.512-.098.707-.293l1.293-1.293 1.293 1.293c.195.195.451.293.707.293s.512-.098.707-.293l2-2c.2-.2.294-.465.289-.728v-57.959c.005-.263-.089-.526-.289-.727l-2-2c-.391-.391-1.023-.391-1.414 0l-1.293 1.293-1.293-1.293c-.391-.391-1.023-.391-1.414 0l-1.293 1.293-1.293-1.293c-.391-.391-1.023-.391-1.414 0l-1.293 1.293-1.293-1.293c-.391-.391-1.023-.391-1.414 0l-1.293 1.293-1.293-1.293c-.391-.391-1.023-.391-1.414 0l-1.293 1.293-1.293-1.293c-.391-.391-1.023-.391-1.414 0l-1.293 1.293-1.293-1.293c-.391-.391-1.023-.391-1.414 0l-1.293 1.293-1.293-1.293c-.391-.391-1.023-.391-1.414 0l-1.293 1.293-1.293-1.293c-.391-.391-1.023-.391-1.414 0l-1.293 1.293-1.293-1.293c-.391-.391-1.023-.391-1.414 0l-2 2c-.2.201-.294.464-.289.727zm2.996-58.565 1.293 1.293c.195.195.451.293.707.293s.512-.098.707-.293l1.293-1.293 1.293 1.293c.195.195.451.293.707.293s.512-.098.707-.293l1.293-1.293 1.293 1.293c.195.195.451.293.707.293s.512-.098.707-.293l1.293-1.293 1.293 1.293c.195.195.451.293.707.293s.512-.098.707-.293l1.293-1.293 1.293 1.293c.195.195.451.293.707.293s.512-.098.707-.293l1.293-1.293 1.293 1.293c.195.195.451.293.707.293s.512-.098.707-.293l1.293-1.293 1.293 1.293c.195.195.451.293.707.293s.512-.098.707-.293l1.293-1.293 1.293 1.293c.195.195.451.293.707.293s.512-.098.707-.293l1.293-1.293 1.293 1.293c.195.195.451.293.707.293s.512-.098.707-.293l1.293-1.293.996.996v.59h-2.996-4-4-4-4-4-4-4-4-2.996v-.59zm36 59.172-1.293-1.293c-.194-.194-.448-.291-.702-.292h2.991v.589zm-4 0-1.293-1.293c-.194-.194-.448-.291-.702-.292h3.99c-.254.001-.508.098-.702.292zm-4 0-1.293-1.293c-.194-.194-.448-.291-.702-.292h3.99c-.254.001-.508.098-.702.292zm-4 0-1.293-1.293c-.194-.194-.448-.291-.702-.292h3.99c-.254.001-.508.098-.702.292zm-4 0-1.293-1.293c-.194-.194-.448-.291-.702-.292h3.99c-.254.001-.508.098-.702.292zm-4 0-1.293-1.293c-.194-.194-.448-.291-.702-.292h3.99c-.254.001-.508.098-.702.292zm-4 0-1.293-1.293c-.194-.194-.448-.291-.702-.292h3.99c-.254.001-.508.098-.702.292zm-4 0-1.293-1.293c-.194-.194-.448-.291-.702-.292h3.99c-.254.001-.508.098-.702.292zm-4 0-1.293-1.293c-.194-.194-.448-.291-.702-.292h3.99c-.254.001-.508.098-.702.292zm-4 0-.996-.996v-.589h2.991c-.254.001-.508.098-.702.292zm-.996-3.585v-52.001h37.992v52.001z"/><path d="m24.199 30.993h15.602c3.418 0 6.199-2.69 6.199-5.998s-2.781-6-6.199-6c-2.03 0-3.509.521-4.813.98-1.048.369-1.952.687-2.988.687s-1.94-.318-2.988-.687c-1.304-.459-2.782-.98-4.813-.98-3.418 0-6.199 2.691-6.199 6 0 3.308 2.781 5.998 6.199 5.998zm19.801-5.997c0 2.204-1.884 3.998-4.199 3.998h-10.954c1.938-1.37 3.566-2.992 3.865-3.295 1.794-1.818 5.304-4.702 7.089-4.702 2.315-.001 4.199 1.793 4.199 3.999zm-19.801-4c1.688 0 2.938.44 4.148.866 1.118.394 2.274.801 3.652.801.406 0 .789-.042 1.162-.103-.976.836-1.688 1.543-1.874 1.733-1.794 1.817-5.304 4.7-7.089 4.7-2.314 0-4.198-1.793-4.198-3.997 0-2.206 1.884-4 4.199-4z"/><path d="m45 34.999h-26c-.553 0-1 .447-1 1s.447 1 1 1h26c.553 0 1-.447 1-1s-.447-1-1-1z"/><path d="m45 37.999h-26c-.553 0-1 .447-1 1s.447 1 1 1h26c.553 0 1-.447 1-1s-.447-1-1-1z"/><path d="m39 40.999h-14c-.553 0-1 .447-1 1s.447 1 1 1h14c.553 0 1-.447 1-1s-.447-1-1-1z"/><path d="m27.031 51h-.011c-.552 0-.994.447-.994 1s.452 1 1.005 1c.552 0 1-.447 1-1s-.448-1-1-1z"/><path d="m32.03 51h-.01c-.552 0-.994.447-.994 1s.452 1 1.005 1c.552 0 1-.447 1-1s-.449-1-1.001-1z"/><path d="m37.029 51h-.011c-.552 0-.994.447-.994 1s.452 1 1.005 1c.552 0 1-.447 1-1s-.448-1-1-1z"/></svg>